<svg width="398" height="167" viewBox="0 0 398 167" fill="none" xmlns="http://www.w3.org/2000/svg">
<path d="M3.1925 22.6129C28.2037 29.9032 48.4459 48.705 76.6203 48.705C104.795 48.705 113.862 34.6036 131.957 34.6036C150.052 34.6036 162.212 62.8064 187.294 62.8064C212.376 62.8064 230.214 29.9032 255.401 29.9032C280.588 29.9032 315.405 81.6082 339.471 81.6082C363.537 81.6082 394.808 1.80615 394.808 1.80615" stroke="#05C283" stroke-width="2" stroke-linecap="round"/>
<path fill-rule="evenodd" clip-rule="evenodd" d="M3.19259 22.6129C28.2038 29.9032 48.446 48.705 76.6204 48.705C104.795 48.705 113.862 34.6036 131.957 34.6036C150.052 34.6036 162.212 62.8064 187.294 62.8064C212.376 62.8064 230.214 29.9032 255.401 29.9032C280.588 29.9032 315.405 81.6082 339.471 81.6082C363.537 81.6082 394.808 1.80615 394.808 1.80615V167H3.19259C3.19259 167 3.02567 30.5145 3.19259 22.6129Z" fill="url(#paint0_linear_1_150)"/>
<circle cx="394" cy="4" r="4" fill="#07E098"/>
<circle cx="340.278" cy="80.9078" r="4" fill="#07E098"/>
<circle cx="256.209" cy="29.2026" r="4" fill="#07E098"/>
<circle cx="188.102" cy="62.106" r="4" fill="#07E098"/>
<circle cx="132.765" cy="33.9033" r="4" fill="#07E098"/>
<circle cx="77.4277" cy="48.0046" r="4" fill="#07E098"/>
<circle cx="4" cy="21.3687" r="4" fill="#07E098"/>
<defs>
<linearGradient id="paint0_linear_1_150" x1="3.10913" y1="1.80615" x2="3.10913" y2="167" gradientUnits="userSpaceOnUse">
<stop stop-color="#00E096" stop-opacity="0.326568"/>
<stop offset="1" stop-color="white" stop-opacity="0.01"/>
</linearGradient>
</defs>
</svg>
